<svg xmlns="http://www.w3.org/2000/svg" viewBox="0 0 139 139">
<!-- SVG created with Arrow, by QuiverAI (https://quiver.ai) -->
  <style type="text/css">.cls-0 {fill:#FFFFFF;}
.cls-1 {fill:#0D7076;stroke:#006A6B;stroke-width:0.75;stroke-linecap:round;stroke-linejoin:round;stroke-miterlimit:10;}
.cls-2 {fill:#002B52;stroke:#001539;stroke-width:0.75;stroke-linecap:round;stroke-linejoin:round;stroke-miterlimit:10;}
.cls-3 {fill:#F0563C;stroke:#F0563C;stroke-width:0.75;stroke-linecap:round;stroke-linejoin:round;stroke-miterlimit:10;}
.cls-4 {fill:#547490;stroke:#49708B;stroke-width:0.75;stroke-linecap:round;stroke-linejoin:round;stroke-miterlimit:10;}
.cls-5 {fill:#002B52;stroke:#001539;stroke-width:0.75;stroke-linejoin:round;stroke-miterlimit:10;}
.cls-6 {fill:#F9A533;stroke:#F69B1C;stroke-width:0.75;stroke-linecap:round;stroke-linejoin:round;stroke-miterlimit:10;}
.cls-7 {fill:#F39A20;}
.cls-8 {fill:#F9A533;stroke:#F69B1C;stroke-width:0.5;stroke-linecap:round;stroke-linejoin:round;stroke-miterlimit:10;}
.cls-9 {fill:#F0563C;stroke:#ED472F;stroke-width:0.75;stroke-linecap:round;stroke-linejoin:round;stroke-miterlimit:10;}
.cls-10 {fill:url(#SVGID_1_);}
.cls-11 {fill:url(#SVGID_2_);}
.cls-12 {fill:url(#SVGID_3_);}
.cls-13 {fill:#0A163A;}
.cls-14 {fill:url(#SVGID_4_);}
.cls-15 {fill:url(#SVGID_5_);}</style>
  <rect class="cls-0" width="139" height="139"/>
  <path class="cls-1" d="m56 44.1v-39.4c0-0.3 0.2-0.7 0.5-0.7h32.9c-0.3 0.3-0.4 0.1-0.3 0.7v83.9c-5.6-4.9-13.1-8.1-13.1-12.1-0.1-4.5 6.6-6.6 6.6-14.1 0-8.5-12.7-13.7-26.6-18.3z"/>
  <path class="cls-2" d="m12 38.6v-25.6c0-4.9 3.2-8.6 8.4-8.7h31.1l0.2 0.2-0.1 38.5-5.4-1v-2.7c0-5.6-5-12.6-14-12.6-7.5 0-14.3 5.4-14.3 12.6l-5.5-0.1-0.4-0.6z"/>
  <path class="cls-0" d="m72.3 11.7c-2.7 2.9-10.2 9.1-10.2 18.2 0 5.3 3.9 11.3 10.2 11.5 4.9 0.2 10.6-4.6 10.6-11.2 0-7.3-6-13.7-10.6-18.5z"/>
  <linearGradient id="SVGID_1_" x1="72.39" x2="72.39" y1="45.86" y2="27.84" gradientUnits="userSpaceOnUse">
    <stop stop-color="#002B52" offset=".3352"/>
    <stop stop-color="#0A163A" offset=".8258"/>
  </linearGradient>
  <path class="cls-10" d="m71.3 28.9-0.1 21.1 2.4 1v-22.1c-0.1-1.4-2-1.6-2.3 0z"/>
  <ellipse class="cls-0" cx="32.1" cy="16.8" rx="7.2" ry="7.4"/>
  <path class="cls-0" d="m17.8 43.7c0-8.7 6.3-15.7 14.2-15.7s14.2 7 14.2 15.7v.4h-28.4v-.4z"/>
  <path class="cls-1" d="m12.1 43.8v35.7l20.7-13.6c0.7-0.4 1.4-0.4 2.1 0l20.5 15.2 0.5 1 0.1 26.5h24.6c-2.1-15.5-19.6-18.1-21.7-28.6-1.9-9.4 10.4-12.7 10.2-18.5-0.3-7.5-18-10.8-26-13.2-12.4-3.1-20.1-4.5-31-4.5z"/>
  <path class="cls-3" d="m93.6 4.7v15.4l18.8 18.8 0.5 0.1 14.1-0.1v-28c-0.1-3.8-2.4-6.4-5.9-6.7h-27.3l-0.2 0.5z"/>
  <path class="cls-4" d="m93.7 63.3 18.7-20.1h14.6v22.5l-0.2 0.2h-33.1v-2.6z"/>
  <linearGradient id="SVGID_2_" x1="109.3" x2="109.3" y1="108.6" y2="70.26" gradientUnits="userSpaceOnUse">
    <stop stop-color="#002B52" offset=".3352"/>
    <stop stop-color="#0A163A" offset=".8258"/>
  </linearGradient>
  <path class="cls-11" d="m93.7 70.9 0.1 37.7h26.9c3.7-0.3 6.2-2.5 6.3-6.2v-31.9h-33l-0.3 0.4z"/>
  <path class="cls-8" d="m93.6 26.6 14.6 14.3-0.2 0.6-14.4 15.2v-30.1z"/>
  <linearGradient id="SVGID_3_" x1="10.59" x2="21.29" y1="125.4" y2="125.4" gradientUnits="userSpaceOnUse">
    <stop stop-color="#0A163A" offset="0"/>
    <stop stop-color="#002B52" offset=".5215"/>
    <stop stop-color="#0A163A" offset="1"/>
  </linearGradient>
  <path class="cls-12" d="m19.4 121c-0.9-1.4-2.5-2.2-4-2.2-3.3 0-5.4 2.6-5.4 6.5 0 3.5 2 6.4 5.4 6.4 1.9 0 3.1-0.8 4-2.1l2.3 2.3c-1.4 2.1-3.6 3.2-6.4 3.2-5 0-8.5-3.7-8.5-9.6 0-6 3.6-9.9 8.5-9.9 2.2 0 4.7 0.9 6.3 2.8l-2.2 2.6z"/>
  <linearGradient id="SVGID_4_" x1="25.61" x2="25.61" y1="134.6" y2="115.2" gradientUnits="userSpaceOnUse">
    <stop stop-color="#0A163A" offset="0"/>
    <stop stop-color="#002B52" offset=".5215"/>
    <stop stop-color="#0A163A" offset="1"/>
  </linearGradient>
  <path class="cls-14" d="m25.6 115.2c1 0 1.9 0.8 1.9 2s-0.9 2-1.9 2-1.9-0.9-1.9-2c0-1 0.9-2 1.9-2zm-1.7 6h3.3v13.7h-3.3v-13.7z"/>
  <path class="cls-13" d="m28.7 121.2h3.7l3.4 9.9 3.4-9.8h3.6l-5.3 13.6h-3.5l-5.3-13.7z"/>
  <linearGradient id="SVGID_5_" x1="45.91" x2="45.91" y1="134.6" y2="115.2" gradientUnits="userSpaceOnUse">
    <stop stop-color="#0A163A" offset="0"/>
    <stop stop-color="#002B52" offset=".5215"/>
    <stop stop-color="#0A163A" offset="1"/>
  </linearGradient>
  <path class="cls-15" d="m46 115.2c1 0 1.9 0.8 1.9 2s-0.9 2-1.9 2-2.1-0.9-2.1-2c0-1 0.8-2 2.1-2zm-1.8 6.1h3.4v13.6h-3.4v-13.6z"/>
  <path class="cls-13" d="m58.7 125.6c-0.7-0.9-1.5-1.6-2.5-1.7-2.1 0-3.5 1.6-3.5 4 0 2.1 1.3 4.1 3.4 4.1 1 0 1.9-0.4 2.7-1.6l2.2 2.2c-1.1 1.7-3 2.6-4.9 2.5-3.6 0.1-6.6-2.5-6.6-7 0-4.2 2.8-6.9 6.6-6.9 1.8 0 3.6 0.6 4.7 2.2l-2.1 2.2z"/>
  <path class="cls-13" d="m78.3 131.9c-1.2 1.8-3.7 3.3-6.4 3.3-4.9 0-8.3-3.6-8.2-9.8 0-5.4 3.7-9.7 8.3-9.7 2.4 0 4.7 1 6.1 2.9l-1.3 1.4c-0.9-1.4-2.4-2.5-4.9-2.5-3.9 0-6.4 3.4-6.4 7.9 0 4.2 2.6 7.9 6.6 7.9 2 0 3.8-0.6 4.9-2.6l1.3 1.2z"/>
  <path class="cls-13" d="m80.6 123.4c1-1.3 2.3-2 4-2 3.3 0 4.5 1.9 4.5 5.2v6.4c0 0.7 0 1.5 0.1 2h-1.7c-0.1-0.4 0-1.1 0-1.9-0.6 1.4-2.1 2.2-3.7 2.2-2.2 0-3.7-1-3.7-4 0-3.6 3.4-4.5 5.9-4.5h1.5v-0.7c0-1.8-1-3-2.6-3-1.2 0-2 0.5-3 1.4l-1.3-1.1zm5.3 5c-2.2 0-4 0.6-4 2.7 0 1.5 1 2.4 2.2 2.4 2.3 0 3.4-1.8 3.4-3.9v-1.2h-1.6z"/>
  <path class="cls-13" d="m91.7 124.6v-3h1.8v2.1c0.6-1.3 1.9-2.4 3.5-2.4 2.6 0 4.2 1.8 4.3 4.7v8.9h-1.8v-8.5c0-2-0.9-3.4-2.6-3.4-2.2 0-3.4 1.7-3.4 4.4v7.5h-1.8v-10.3z"/>
  <path class="cls-13" d="m108.4 135.1h-1.6l-4.5-13.5h1.9l3.4 10.7 3.4-10.7h1.9l-4.5 13.5z"/>
  <path class="cls-13" d="m114.3 123.5c0.9-1.4 2.1-2.1 3.7-2.1 3.3 0 5 2 5 5.2v6.5c0 0.8 0.1 1.4 0.1 1.9h-1.7v-1.9c-0.7 1.4-2 2.2-3.8 2.2-2.1 0-4.1-1-4.1-4 0-3.6 3-4.5 5.9-4.5h1.9v-0.7c0-1.8-0.8-3-2.7-3-1.1 0-2 0.5-3 1.4l-1.3-1zm5.1 4.9c-2.3 0-4 0.7-4 2.7 0 1.5 1 2.5 2.5 2.5 2.1 0 3.4-1.9 3.4-4v-1.2h-1.9z"/>
  <path class="cls-13" d="m125.7 131.9c0.8 1 1.5 1.6 2.8 1.6 1.1 0 2.5-0.6 2.4-2.1 0-1.3-1.2-1.8-2.3-2.2-2-0.6-3.7-1.3-3.7-3.9s1.8-4 3.7-4c1.5 0 2.9 0.7 3.6 1.7l-1.1 1.3c-0.5-0.8-1.4-1.3-2.5-1.3-1 0-2.1 0.6-2 2 0 1.4 1 1.8 2.8 2.4 2 0.6 3.2 1.5 3.2 3.9 0 2.7-2 4-4.1 4-1.8 0-3.1-0.7-4-2l1.2-1.4z"/>
  <path class="cls-7" d="m12.1 84.7v16.7c0.1 4.2 2.6 7.2 7 7.5h32.6l0.1-0.3v-24.5l-17.8-13.5h-0.4l-21.5 14.1z"/>
  <path class="cls-0" d="m28.4 88.4h9.1c0.6 0 1.4 0.6 1.4 1.2v11.1c0 0.8-0.5 1.7-1.5 1.7h-8.9c-0.9 0-1.6-0.8-1.6-1.4v-11.3c0-0.7 0.7-1.3 1.5-1.3z"/>
  <linearGradient id="SVGID_6_" x1="109.6" x2="109.6" y1="79.38" y2="100.3" gradientUnits="userSpaceOnUse">
    <stop stop-color="#F1F3F6" offset=".3352"/>
    <stop stop-color="#fff" offset="1"/>
  </linearGradient>
  <path d="m106.8 85.4-5.5 0.5c-1.2 0.2-1.8 1.7-0.7 2.7l3.8 3.8-1 6c0 1.2 1.3 2.6 2.6 2l4.2-2.5 4.9 2.6c1.3 0.5 2.8-0.9 2.5-2.1l-1-5.5 3.9-4.3c1-1.2 0.1-3-1-3l-5.1-0.6-2.5-5.5c-0.8-1.1-2.5-0.9-3 0.2l-2.1 5.7z" fill="url(#SVGID_6_)"/>
  <path class="cls-0" d="m106.9 85.4-5.5 0.5c-1 0.5-1.4 1.7-0.7 2.5l4.2 4-1.3 6c0 1 1.3 2 2 1.5l4.6-3 5.2 2.8c1 0.3 1.5-0.3 1.2-1.6l-0.7-5.7 4.2-4.3c0.9-0.7 0.1-2-0.7-2l-5.8-0.6-2.2-5.5c-0.4-0.9-1.9-0.6-2.4 0.4l-2.1 5z"/>
  <path class="cls-6" d="m33.4 70.6"/>
  <path class="cls-0" d="m33.4 70.6"/>
</svg>
